<svg width="100" height="100" viewBox="0 0 100 100" fill="none" xmlns="http://www.w3.org/2000/svg">
  <path d="M50 5L15 20V50C15 70 30 85 50 95C70 85 85 70 85 50V20L50 5ZM50 10L80 23V50C80 67.5 67.5 80 50 90C32.5 80 20 67.5 20 50V23L50 10Z" fill="#0059A3"/>
  <path d="M50 15L25 25V50C25 65 35 75 50 82.5C65 75 75 65 75 50V25L50 15ZM50 85C30 77.5 20 65 20 50V22.5L50 7.5L80 22.5V50C80 65 70 77.5 50 85Z" fill="#0059A3"/>
  <path d="M42.5 62.5L30 50L35 45L42.5 52.5L65 30L70 35L42.5 62.5Z" fill="#0059A3"/>
</svg> 